<svg viewBox="0 0 512 512" xmlns="http://www.w3.org/2000/svg" xmlns:xlink="http://www.w3.org/1999/xlink"><linearGradient id="a" gradientTransform="matrix(1 0 0 -1 0 -10018)" gradientUnits="userSpaceOnUse" x1="0" x2="512" y1="-10274" y2="-10274"><stop offset="0" stop-color="#31d8ff"/><stop offset="1" stop-color="#ff80ff"/></linearGradient><path d="m512 256c0 141.386719-114.613281 256-256 256s-256-114.613281-256-256 114.613281-256 256-256 256 114.613281 256 256zm0 0" fill="url(#a)"/><path d="m381.425781 393.421875h-250.851562c-6.601563 0-12.429688-4.316406-14.351563-10.636719l-59.574218-195.972656c-1.734376-5.707031.078124-11.902344 4.613281-15.773438 4.539062-3.875 10.941406-4.6875 16.304687-2.078124l86.261719 41.996093 80.839844-93.210937c2.847656-3.28125 6.984375-5.171875 11.332031-5.171875s8.480469 1.890625 11.332031 5.171875l80.839844 93.210937 86.261719-41.996093c5.367187-2.609376 11.765625-1.792969 16.304687 2.078124 4.535157 3.871094 6.351563 10.066407 4.613281 15.773438l-59.574218 195.972656c-1.921875 6.320313-7.75 10.636719-14.351563 10.636719zm-239.730469-30h228.609376l46.34375-152.433594-65.695313 31.980469c-6.105469 2.972656-13.449219 1.472656-17.898437-3.660156l-77.054688-88.839844-77.054688 88.84375c-4.449218 5.128906-11.789062 6.628906-17.894531 3.65625l-65.695312-31.980469zm0 0" fill="#fff"/></svg>